/* XPM */
static const char *APP_ICON_XPM[] = {
"16 16 184 2",
"  	c #29161B",
". 	c #2B171C",
"+ 	c #2D181C",
"@ 	c #2E191D",
"# 	c #32151A",
"$ 	c #4F0407",
"% 	c #4F050C",
"& 	c #240306",
"* 	c #0D0102",
"= 	c #0B0914",
"- 	c #04233D",
"; 	c #08A8A6",
"> 	c #28EFD9",
", 	c #0C6885",
"' 	c #0B3754",
") 	c #103040",
"! 	c #2D161A",
"~ 	c #30171B",
"{ 	c #33171B",
"] 	c #35191C",
"^ 	c #421C21",
"/ 	c #5C3236",
"( 	c #3D0711",
"_ 	c #56132A",
": 	c #481124",
"< 	c #280F21",
"[ 	c #062440",
"} 	c #3993AF",
"| 	c #7EDBFF",
"1 	c #03416C",
"2 	c #093551",
"3 	c #0E3241",
"4 	c #341519",
"5 	c #381519",
"6 	c #3B151A",
"7 	c #411519",
"8 	c #703E43",
"9 	c #411F21",
"0 	c #493037",
"a 	c #2F728B",
"b 	c #2F1328",
"c 	c #4B1D3B",
"d 	c #363E6D",
"e 	c #1C4F78",
"f 	c #003459",
"g 	c #021422",
"h 	c #08212A",
"i 	c #3E1317",
"j 	c #451217",
"k 	c #52171B",
"l 	c #65A2B6",
"m 	c #1D6B81",
"n 	c #17202C",
"o 	c #694B57",
"p 	c #2A2C4B",
"q 	c #1782B1",
"r 	c #064778",
"s 	c #011628",
"t 	c #020308",
"u 	c #4C1014",
"v 	c #581115",
"w 	c #796275",
"x 	c #454250",
"y 	c #32DFEC",
"z 	c #087C97",
"A 	c #064160",
"B 	c #09446A",
"C 	c #0C4265",
"D 	c #0A1622",
"E 	c #621014",
"F 	c #8F4445",
"G 	c #753641",
"H 	c #7094A9",
"I 	c #0A3143",
"J 	c #12E4E9",
"K 	c #067790",
"L 	c #03364F",
"M 	c #083C54",
"N 	c #983C3C",
"O 	c #D39290",
"P 	c #C58585",
"Q 	c #9D5155",
"R 	c #A6676F",
"S 	c #696B78",
"T 	c #44788A",
"U 	c #0BACC6",
"V 	c #0ED5E4",
"W 	c #C15858",
"X 	c #D48080",
"Y 	c #E89E9C",
"Z 	c #E7B5B4",
"` 	c #BE8E91",
" .	c #804D54",
"..	c #A5909D",
"+.	c #066B8C",
"@.	c #4ACBD0",
"#.	c #AF2725",
"$.	c #D56D6C",
"%.	c #DE7F7E",
"&.	c #D49B9C",
"*.	c #D0B3B9",
"=.	c #B5B9C4",
"-.	c #7BA9B5",
";.	c #5B926F",
">.	c #910104",
",.	c #C60808",
"'.	c #C05C5E",
").	c #B86D6F",
"!.	c #BF8487",
"~.	c #AEAAB3",
"{.	c #A6C2CE",
"].	c #94CBD5",
"^.	c #6A838E",
"/.	c #09CC40",
"(.	c #D90505",
"_.	c #A56D72",
":.	c #A77A80",
"<.	c #8E909C",
"[.	c #86AFBD",
"}.	c #7FCFD9",
"|.	c #68C2CD",
"1.	c #6E8994",
"2.	c #69A181",
"3.	c #0FCB1A",
"4.	c #0AC328",
"5.	c #770103",
"6.	c #EA0807",
"7.	c #0570A0",
"8.	c #658597",
"9.	c #6D96A9",
"0.	c #76B2C1",
"a.	c #8DC2CE",
"b.	c #7FAFA9",
"c.	c #12B230",
"d.	c #05CD13",
"e.	c #076609",
"f.	c #4E0507",
"g.	c #4B0102",
"h.	c #049FCD",
"i.	c #668494",
"j.	c #628FA1",
"k.	c #1B9943",
"l.	c #0CB113",
"m.	c #055A06",
"n.	c #072F06",
"o.	c #B11D1C",
"p.	c #961916",
"q.	c #550707",
"r.	c #490002",
"s.	c #06A4D5",
"t.	c #1689AF",
"u.	c #11945F",
"v.	c #065206",
"w.	c #031D03",
"x.	c #336E35",
"y.	c #AA1A1C",
"z.	c #B92221",
"A.	c #B72622",
"B.	c #8D1C19",
"C.	c #470A0A",
"D.	c #361723",
"E.	c #023B5C",
"F.	c #046394",
"G.	c #0794BD",
"H.	c #083B31",
"I.	c #0E300F",
"J.	c #3E7D44",
"K.	c #579E64",
"L.	c #8D1419",
"M.	c #9A171C",
"N.	c #9F1D20",
"O.	c #A42525",
"P.	c #9A2B27",
"Q.	c #772B28",
"R.	c #362329",
"S.	c #071C2D",
"T.	c #023350",
"U.	c #036490",
"V.	c #035B84",
"W.	c #012639",
"X.	c #133827",
"Y.	c #42814D",
"Z.	c #509060",
"`.	c #46835B",
"  . + @ # $ % & * = - ; > , ' ) ",
"! ~ { ] ^ / ( _ : < [ } | 1 2 3 ",
"4 5 6 7 8 9 0 a b c d e | f g h ",
"i j k 8 9 0 l m n o p e q r s t ",
"u v 8 9 9 w x n o y n z A B C D ",
"E F G 9 G 0 & o H I I J n K L M ",
"N O P Q R & o S n I T U I V n I ",
"W X Y Z `  ...n I T n I K +.I @.",
"#.#.$.%.&.*.=.I T n I T n I -.;.",
">.,.#.'.).!.~.{.].I T n I ^.;./.",
">.(.>.,.#._.:.<.[.}.|.I 1.2.3.4.",
"5.,.>.6.>.,.7.8.8.9.0.a.b.c.d.e.",
"f.g.5.,.>.6.h.7.7.8.i.j.k.l.m.n.",
"o.p.q.r.5.,.h.7.s.7.7.t.u.v.w.x.",
"y.z.A.B.C.D.E.F.s.7.G.7.H.I.J.K.",
"L.M.N.O.P.Q.R.S.T.U.V.W.X.Y.Z.`."
};
