/* XPM */
static const char *APP_ICON_XPM[] = {
"16 16 27 1",
" 	c #6A6A6A",
".	c #8A6363",
"+	c #DB3F3F",
"@	c #DC3E3E",
"#	c #FF0000",
"$	c #CD4848",
"%	c #6F6969",
"&	c #AE5858",
"*	c #AF5757",
"=	c #868686",
"-	c #919191",
";	c #909094",
">	c #7979BE",
",	c #7878BF",
"'	c #6464D6",
")	c #0101FF",
"!	c #0000FF",
"~	c #5858E1",
"{	c #8888A5",
"]	c #5757E2",
"^	c #696F69",
"/	c #697269",
"(	c #648864",
"_	c #27F127",
":	c #0DFC0D",
"<	c #57AF57",
"[	c #00FF00",
"                ",
" .+@@@+.        ",
" +#####+        ",
" $#####$        ",
" %&***&%        ",
"================",
"--------;>,,,>;-",
"--------')!!!)'-",
"--------~!!!!!~-",
"--------{~]]]~{-",
"================",
"      ^///^     ",
"     (_:::_(    ",
"     <[[[[[<    ",
"     (_:::_(    ",
"      ^///^     "
};
