/* XPM */
static const char *APP_ICON_XPM[] = {
"16 16 168 2",
"  	c #21000B",
". 	c #16000B",
"+ 	c #000000",
"@ 	c #FF432C",
"# 	c #D33743",
"$ 	c #853737",
"% 	c #432C4E",
"& 	c #372C4E",
"* 	c #002C59",
"= 	c #003764",
"- 	c #0B376F",
"; 	c #21437A",
"> 	c #0B4E85",
", 	c #164E90",
"' 	c #215990",
") 	c #A60B4E",
"! 	c #FF85D3",
"~ 	c #B14E64",
"{ 	c #160000",
"] 	c #900B00",
"^ 	c #7A2137",
"/ 	c #373759",
"( 	c #00436F",
"_ 	c #0B437A",
": 	c #900000",
"< 	c #FF7ADE",
"[ 	c #A67AA6",
"} 	c #434E59",
"| 	c #00000B",
"1 	c #0B0000",
"2 	c #850000",
"3 	c #6F2137",
"4 	c #4E3759",
"5 	c #373764",
"6 	c #164E85",
"7 	c #FF6FD3",
"8 	c #C89BBC",
"9 	c #0B0B0B",
"0 	c #647A90",
"a 	c #435964",
"b 	c #6F0000",
"c 	c #434364",
"d 	c #43436F",
"e 	c #7A0000",
"f 	c #FF59BC",
"g 	c #E9A6D3",
"h 	c #000B0B",
"i 	c #A6BCBC",
"j 	c #9BBCD3",
"k 	c #2C3743",
"l 	c #640000",
"m 	c #43214E",
"n 	c #43376F",
"o 	c #F44390",
"p 	c #FFBCE9",
"q 	c #E97A9B",
"r 	c #C8C8D3",
"s 	c #C8E9F4",
"t 	c #90B1D3",
"u 	c #37434E",
"v 	c #2C430B",
"w 	c #FFB1D3",
"x 	c #E9D3FF",
"y 	c #596F85",
"z 	c #BCDEF4",
"A 	c #641616",
"B 	c #D3E9F4",
"C 	c #BCD3DE",
"D 	c #7A9BB1",
"E 	c #59BCC8",
"F 	c #37E9A6",
"G 	c #E9DEFF",
"H 	c #BCD3E9",
"I 	c #BCC8DE",
"J 	c #B1C8DE",
"K 	c #006FC8",
"L 	c #85FFDE",
"M 	c #00FF9B",
"N 	c #BC6F85",
"O 	c #D390BC",
"P 	c #C8D3E9",
"Q 	c #B1D3E9",
"R 	c #0B7AD3",
"S 	c #85FFE9",
"T 	c #21FF9B",
"U 	c #009B59",
"V 	c #F40000",
"W 	c #D34E59",
"X 	c #B1E9F4",
"Y 	c #BCD3F4",
"Z 	c #0064C8",
"` 	c #6FE9E9",
" .	c #43DE9B",
"..	c #00C885",
"+.	c #436400",
"@.	c #64160B",
"#.	c #B11616",
"$.	c #BC0000",
"%.	c #A64359",
"&.	c #BC6485",
"*.	c #C8649B",
"=.	c #D3C8E9",
"-.	c #85E9E9",
";.	c #16DEC8",
">.	c #37BC21",
",.	c #6F8521",
"'.	c #370B00",
").	c #9B2121",
"!.	c #900B16",
"~.	c #6F212C",
"{.	c #BC4EB1",
"].	c #C864BC",
"^.	c #BCC8E9",
"/.	c #9BE9FF",
"(.	c #3737DE",
"_.	c #00D3F4",
":.	c #16DE90",
"<.	c #43A62C",
"[.	c #4E000B",
"}.	c #9B1616",
"|.	c #640016",
"1.	c #431616",
"2.	c #7A162C",
"3.	c #6F0B2C",
"4.	c #6F1664",
"5.	c #BC21BC",
"6.	c #C89BFF",
"7.	c #2164DE",
"8.	c #00BCFF",
"9.	c #0BDEDE",
"0.	c #37BC64",
"a.	c #004E16",
"b.	c #9B1621",
"c.	c #850B21",
"d.	c #640B21",
"e.	c #4E0B21",
"f.	c #0B000B",
"g.	c #430B16",
"h.	c #64214E",
"i.	c #430085",
"j.	c #4E37C8",
"k.	c #5937F4",
"l.	c #00DEFF",
"m.	c #2CC89B",
"n.	c #0B3716",
"o.	c #166421",
"p.	c #A61621",
"q.	c #7A0B21",
"r.	c #4E0B2C",
"s.	c #2C0B2C",
"t.	c #2C0B00",
"u.	c #5916A6",
"v.	c #432CE9",
"w.	c #16D3B1",
"x.	c #0B370B",
"y.	c #0B6421",
"z.	c #168521",
"A.	c #851621",
"B.	c #6F162C",
"C.	c #59162C",
"D.	c #430B37",
"E.	c #2C1637",
"F.	c #161637",
"G.	c #7A4390",
"H.	c #007A2C",
"I.	c #002C00",
"J.	c #0B852C",
"K.	c #0B9B2C",
"  . + + @ # $ % & * = - ; > , ' ",
"  + + ) ! ~ { ] ^ % / = ( _ > , ",
"{ + : < [ + } | 1 2 3 4 5 ( _ 6 ",
"+ 2 7 8 + 9 0 + a 9 9 b 3 c d _ ",
"e f g + h i + 9 j + k 9 9 l m n ",
"o p q + r + h s + + t + u h + v ",
"w x y z A + B + + C + 9 D + E F ",
"G y H y I H k + C + + J + K L M ",
"N O y P Q y H y k + H + R S T U ",
"V W N O y X y H y Y 1 Z `  ...+.",
"@.#.$.%.&.*.=.y Q y Q -.Z ;.>.,.",
"1 + '.).!.~.{.].y ^./.(._.:.<.[.",
"}.|.1 + 1.2.3.4.5.6.7.8.9.0.+ a.",
"b.c.d.e.f.+ g.h.i.j.k.l.m.+ n.o.",
"p.b.q.d.r.s.| + t.u.v.w.+ x.y.z.",
"b.b.A.B.C.D.E.F.| + G.H.I.y.J.K."
};
