/* XPM */
static const char *APP_XPM[] = {
"48 48 5 1",
" 	c #6A6A6A",
".	c #FF0000",
"+	c #919191",
"@	c #0000FF",
"#	c #00FF00",
"                                                ",
"                                                ",
"                                                ",
"                                                ",
"      ...............                           ",
"     .................                          ",
"    ...................                         ",
"    ...................                         ",
"    ...................                         ",
"    ...................                         ",
"    ...................                         ",
"     .................                          ",
"      ...............                           ",
"                                                ",
"                                                ",
"                                                ",
"++++++++++++++++++++++++++++++++++++++++++++++++",
"++++++++++++++++++++++++++++++++++++++++++++++++",
"++++++++++++++++++++++++++++++++++++++++++++++++",
"++++++++++++++++++++++++++++++++++++++++++++++++",
"+++++++++++++++++++++++++++@@@@@@@@@@@@@@@++++++",
"++++++++++++++++++++++++++@@@@@@@@@@@@@@@@@+++++",
"+++++++++++++++++++++++++@@@@@@@@@@@@@@@@@@@++++",
"+++++++++++++++++++++++++@@@@@@@@@@@@@@@@@@@++++",
"+++++++++++++++++++++++++@@@@@@@@@@@@@@@@@@@++++",
"+++++++++++++++++++++++++@@@@@@@@@@@@@@@@@@@++++",
"+++++++++++++++++++++++++@@@@@@@@@@@@@@@@@@@++++",
"++++++++++++++++++++++++++@@@@@@@@@@@@@@@@@+++++",
"+++++++++++++++++++++++++++@@@@@@@@@@@@@@@++++++",
"++++++++++++++++++++++++++++++++++++++++++++++++",
"++++++++++++++++++++++++++++++++++++++++++++++++",
"++++++++++++++++++++++++++++++++++++++++++++++++",
"                                                ",
"                                                ",
"                                                ",
"                                                ",
"                 ###############                ",
"                #################               ",
"               ###################              ",
"               ###################              ",
"               ###################              ",
"               ###################              ",
"               ###################              ",
"                #################               ",
"                 ###############                ",
"                                                ",
"                                                ",
"                                                "
};
