/* XPM */
static const char *BRUSH_XPM[] = {
"18 18 14 1",
" 	c None",
".	c #000000",
"+	c #F0BE48",
"@	c #D4A430",
"#	c #BC782A",
"$	c #A6AEB4",
"%	c #767676",
"&	c #44432C",
"*	c #BAC2CA",
"=	c #D1CF8A",
"-	c #E3E096",
";	c #F0ED9F",
">	c #828055",
",	c #565538",
"                  ",
"              ..  ",
"             .+@. ",
"       ..   .+@#. ",
"      .$%. .+@#.  ",
"     &%*$%.+@#.   ",
"    &=-%*$%@#.    ",
"   &=-;-%*$%.     ",
"  &=-;-=-%*$%.    ",
" &=-;-=-;-%*$%.   ",
"  &=-=-;-=-%*$.   ",
"   &>-;-=-;-%.    ",
"    &=-=-;->&     ",
"     &>-;->&      ",
"      &=->&       ",
"       &,&        ",
"                  ",
"                  "
};
