/* XPM */
static const char *BRUSH_XPM[] = {
"16 16 14 1",
" 	c None",
".	c #6F5519",
"+	c #F0BE48",
"@	c #D4A430",
"#	c #BC782A",
"$	c #A6AEB4",
"%	c #767676",
"&	c #41320A",
"*	c #BAC2CA",
"=	c #A8A66E",
"-	c #E3E096",
";	c #F0ED9F",
">	c #DBD991",
",	c #CCCA87",
"                ",
"            .   ",
"           .+.  ",
"          .+@#. ",
"     $%  .+@#&  ",
"    %*$%.+@#&   ",
"   =-%*$%@#&    ",
"  =-;-%*$%&     ",
" =-;->-%*$%     ",
"=-;->-;-%*$%    ",
" ,->-;->-%*$    ",
"  =-;->-;-%     ",
"   ,->-;-=      ",
"    =-;-=       ",
"     ,-=        ",
"      =         "
};
