/* XPM */
static const char *BRUSH_XPM[] = {
"16 16 15 1",
" 	c None",
".	c #000000",
"+	c #F0BE48",
"@	c #D4A430",
"#	c #BC782A",
"$	c #A6AEB4",
"%	c #767676",
"&	c #44432C",
"*	c #BAC2CA",
"=	c #A8A66E",
"-	c #E3E096",
";	c #F0ED9F",
">	c #DBD991",
",	c #7A7950",
"'	c #CCCA87",
"            .   ",
"           .+.  ",
"          .++@. ",
"     ..  .++@##.",
"    .$%..++@##. ",
"   &%*$%++@##.  ",
"  &=-%*$%@##.   ",
" &=-;-%*$%#.    ",
"&=-;->-%*$%.    ",
",-;->-;-%*$%.   ",
"&'->-;->-%*$.   ",
" &=-;->-;-%.    ",
"  &'->-;-=&     ",
"   &=-;-=&      ",
"    &'-=&       ",
"     &,&        "
};
