/* XPM */
static const char *BRUSH_CMY_XPM[] = {
"16 16 27 1",
" 	c None",
".	c #000000",
"+	c #F0BE48",
"@	c #D4A430",
"#	c #BC782A",
"$	c #A6AEB4",
"%	c #767676",
"&	c #44432C",
"*	c #BAC2CA",
"=	c #006060",
"-	c #D1CF8A",
";	c #E3E096",
">	c #00D0D0",
",	c #00B0B0",
"'	c #F0ED9F",
")	c #00E8E8",
"!	c #00FFFF",
"~	c #D000D0",
"{	c #B000B0",
"]	c #E800E8",
"^	c #FF00FF",
"/	c #B0B000",
"(	c #600060",
"_	c #E8E800",
":	c #FFFF00",
"<	c #D0D000",
"[	c #606000",
"             .. ",
"            .+@.",
"      ..   .+@#.",
"     .$%. .+@#. ",
"    &%*$%.+@#.  ",
"   =-;%*$%@#.   ",
"  =>,';%*$%.    ",
" =>)!,-;%*$%.   ",
"=>)!)~{';%*$%.  ",
" =!)~]^{-;%*$.  ",
"  =~]^]~/';%.   ",
"   (^]~_:/-&    ",
"    (~_:_<[     ",
"     [:_<[      ",
"      [<[       ",
"       [        "
};
