/* XPM */
static const char *DECREASE_SPACING_XPM[] = {
"18 18 4 1",
" 	c None",
".	c #404040",
"+	c #000000",
"@	c #38C5FF",
"                  ",
" .              . ",
" .              . ",
" .              . ",
" . ++        ++ . ",
" . +@+      +@+ . ",
" . +@@+    +@@+ . ",
" +++@@@+  +@@@+++ ",
" @@@@@@@++@@@@@@@ ",
" @@@@@@@++@@@@@@@ ",
" +++@@@+  +@@@+++ ",
" . +@@+    +@@+ . ",
" . +@+      +@+ . ",
" . ++        ++ . ",
" .              . ",
" .              . ",
" .              . ",
"                  "
};
