/* XPM */
static const char *DECREASE_SPACING_XPM[] = {
"16 16 3 1",
" 	c None",
".	c #000000",
"+	c #FFFFFF",
".              .",
".              .",
". .          . .",
". ..        .. .",
". .+.      .+. .",
"...++.    .++...",
".+++++.  .+++++.",
".++++++..++++++.",
".++++++..++++++.",
".+++++.  .+++++.",
"...++.    .++...",
". .+.      .+. .",
". ..        .. .",
". .          . .",
".              .",
".              ."
};
