/* XPM */
static const char *DELETE_XPM[] = {
"16 16 3 1",
" 	c None",
".	c #000000",
"+	c #C80000",
"                ",
"   ...    ...   ",
"  ..+..  ..+..  ",
" ..+++....+++.. ",
" .+++++..+++++. ",
" ..++++++++++.. ",
"  ..++++++++..  ",
"   ..++++++..   ",
"   ..++++++..   ",
"  ..++++++++..  ",
" ..++++++++++.. ",
" .+++++..+++++. ",
" ..+++....+++.. ",
"  ..+..  ..+..  ",
"   ...    ...   ",
"                "
};
