/* XPM */
static const char *DOWN_DOWN_XPM[] = {
"18 18 3 1",
" 	c None",
".	c #000000",
"+	c #33DDFF",
"                  ",
"                  ",
"                  ",
"                  ",
"                  ",
"   ....    ....   ",
"   .++.    .++.   ",
"   .++.    .++.   ",
" ...++......++... ",
" .++++++..++++++. ",
"  .++++.  .++++.  ",
"   .++.    .++.   ",
"    ..      ..    ",
"                  ",
"                  ",
"                  ",
"                  ",
"                  "
};
