/* XPM */
static const char *DOWN_DOWN_XPM[] = {
"16 16 3 1",
" 	c None",
".	c #000000",
"+	c #99EEFF",
"                ",
"                ",
"                ",
"                ",
"  ....    ....  ",
"  .++.    .++.  ",
"  .++.    .++.  ",
"...++......++...",
".++++++..++++++.",
" .++++.  .++++. ",
"  .++.    .++.  ",
"   ..      ..   ",
"                ",
"                ",
"                ",
"                "
};
