/* XPM */
static const char *GLUE_LIGHT_XPM[] = {
"18 18 6 1",
" 	c None",
".	c #7F007F",
"+	c #FF00FF",
"@	c #000000",
"#	c #00A500",
"$	c #00FFFF",
"                  ",
"      .++++.      ",
"       .++.       ",
"        ..        ",
"                  ",
" @@@@@@@@@@@@@@@@ ",
" @######$#######@ ",
" @#######$######@ ",
" @######$#######@ ",
" @#######$######@ ",
" @######$#######@ ",
" @#######$######@ ",
" @@@@@@@@@@@@@@@@ ",
"                  ",
"        ..        ",
"       .++.       ",
"      .++++.      ",
"                  "
};
