/* XPM */
static const char *GLUE_LIGHT_XPM[] = {
"16 16 6 1",
" 	c None",
".	c #7F007F",
"+	c #FF00FF",
"@	c #000000",
"#	c #00A500",
"$	c #00FFFF",
"     .++++.     ",
"      .++.      ",
"       ..       ",
"                ",
"@@@@@@@@@@@@@@@@",
"@######$#######@",
"@#######$######@",
"@######$#######@",
"@#######$######@",
"@######$#######@",
"@#######$######@",
"@@@@@@@@@@@@@@@@",
"                ",
"       ..       ",
"      .++.      ",
"     .++++.     "
};
