/* XPM */
static const char *INCREASE_SPACING_XPM[] = {
"16 16 4 1",
" 	c None",
".	c #404040",
"+	c #000000",
"@	c #38C5FF",
".              .",
".              .",
".              .",
".   ++    ++   .",
".  +@+    +@+  .",
". +@@+    +@@+ .",
".+@@@++++++@@@+.",
"+@@@@@@@@@@@@@@+",
"+@@@@@@@@@@@@@@+",
".+@@@++++++@@@+.",
". +@@+    +@@+ .",
".  +@+    +@+  .",
".   ++    ++   .",
".              .",
".              .",
".              ."
};
