/* XPM */
static const char *KEYS_XPM[] = {
"16 16 3 1",
" 	c #A0A0A0",
".	c #000000",
"+	c #FFFFFF",
"               .",
"+++++++++++...+.",
"++++++++++.++++.",
"++++++++++.+..+.",
"++++++++++.++.+.",
"+++++++++++..++.",
"..........+++++.",
".+++.+.+..+++++.",
".+..+++++.......",
".++..+.+..+++++.",
".+..+++++.+...+.",
".+...+.+..+.+++.",
"..........+..++.",
"+++++++++++.+++.",
"+++++++++++.+++.",
"               ."
};
