/* XPM */
static const char *KEYS_XPM[] = {
"18 18 4 1",
" 	c None",
".	c #A0A0A0",
"+	c #000000",
"@	c #FFFFFF",
"                  ",
" ...............+ ",
" @@@@@@@@@@@+++@+ ",
" @@@@@@@@@@+@@@@+ ",
" @@@@@@@@@@+@++@+ ",
" @@@@@@@@@@+@@+@+ ",
" ++++++++++@++@@+ ",
" +@@@+@+@++@@@@@+ ",
" +@++@@@@@+@@@@@+ ",
" +@@++@+@++++++++ ",
" +@++@@@@@+@@@@@+ ",
" +@+++@+@++@+++@+ ",
" ++++++++++@+@@@+ ",
" @@@@@@@@@@@++@@+ ",
" @@@@@@@@@@@+@@@+ ",
" @@@@@@@@@@@+@@@+ ",
" ...............+ ",
"                  "
};
