/* XPM */
static const char *LOOP_XPM[] = {
"16 16 3 1",
" 	c None",
".	c #000000",
"+	c #FFFF00",
"                ",
"  ............  ",
" .++++++++++++. ",
".++++++++++++++.",
".+++........+++.",
".++.        .++.",
".++.        .++.",
".++.  ..    .++.",
".++.  .+.   .++.",
".+++...++...+++.",
".+++++++++.++++.",
" .++++++++.+++. ",
"  .....++.....  ",
"      .+.       ",
"      ..        ",
"                "
};
