/* XPM */
static const char *LOOP_XPM[] = {
"18 18 3 1",
" 	c None",
".	c #000000",
"+	c #FFFF00",
"                  ",
"                  ",
"   ............   ",
"  .++++++++++++.  ",
" .++++++++++++++. ",
" .+++........+++. ",
" .++.        .++. ",
" .++.        .++. ",
" .++.  ..    .++. ",
" .++.  .+.   .++. ",
" .+++...++...+++. ",
" .+++++++++.++++. ",
"  .++++++++.+++.  ",
"   .....++.....   ",
"       .+.        ",
"       ..         ",
"                  ",
"                  "
};
