/* XPM */
static const char *NOTES_XPM[] = {
"16 16 4 1",
" 	c None",
".	c #000000",
"+	c #DD0000",
"@	c #FFFFFF",
"                ",
" ...............",
" .++++++++++++++",
" .++++++++++@+++",
" .++@@@+++@+@+++",
" .+@+++@++@+@@++",
" .+@++++++@@@+++",
" .+@+++++@@+@@++",
" .+@++++++@@@+++",
" .+@+++++@@+@+++",
" .+@+++@++@+@+++",
" .++@@@+++@+++++",
" .++++++++++++++",
" .++++++++++++++",
" ...............",
"                "
};
