/* XPM */
static const char *NOTES_XPM[] = {
"16 16 6 1",
" 	c None",
".	c #000000",
"+	c #0075FD",
"@	c #00A500",
"#	c #F8F7F6",
"$	c #D90000",
"............... ",
".++++++.@@@@@@. ",
".+##+++.@##@@@. ",
".+#+#++.@#@#@@. ",
".+#+#++.@#@#@@. ",
".+#+#++.@#@#@@. ",
".+##+++.@##@@@. ",
".++.............",
"....$$$$$$$$$$$.",
"   .$$##$$#$#$$.",
"   .$#$$$#####$.",
"   .$#$$$$#$#$$.",
"   .$#$$$#####$.",
"   .$$##$$#$#$$.",
"   .$$$$$$$$$$$.",
"   ............."
};
