/* XPM */
static const char *ONE_XPM[] = {
"18 18 3 1",
" 	c None",
".	c #000000",
"+	c #FFFFFF",
"                  ",
"                  ",
"                  ",
"       ....       ",
"      ..++.       ",
"     ..+++.       ",
"     .++++.       ",
"     ...++.       ",
"       .++.       ",
"       .++.       ",
"       .++.       ",
"     ...++...     ",
"     .++++++.     ",
"     .++++++.     ",
"     ........     ",
"                  ",
"                  ",
"                  "
};
