/* XPM */
static const char *OPEN_XPM[] = {
"18 18 4 1",
" 	c None",
".	c #000000",
"+	c #FFC800",
"@	c #FFFFFF",
"                  ",
"  ............    ",
"  .+..+++++++.    ",
"  .+++........    ",
"  .++++.@@@@..    ",
"  .++++.@@@@.@.   ",
"  .++++.@@@@....  ",
"  .++++.@@@@@@@.  ",
"  .++++.@@@@@@@.  ",
"  .++++.@@@@@@@.  ",
"  .++++.@@@@@@@.  ",
"  .++++.@@@@@@@.  ",
"  .++++.@@@@@@@.  ",
"  .++++.@@@@@@@.  ",
"  ..+++.@@@@@@@.  ",
"    ..+.........  ",
"      ..          ",
"                  "
};
