/* XPM */
static const char *OPEN_XPM[] = {
"16 16 4 1",
"  c None",
"# c #000000",
"+ c #FFC800",
". c #FFFFFF",
" ############   ",
" #+##+++++++#   ",
" #+++########   ",
" #++++#....##   ",
" #++++#....#.#  ",
" #++++#....#### ",
" #++++#.......# ",
" #++++#.......# ",
" #++++#.......# ",
" #++++#.......# ",
" #++++#.......# ",
" #++++#.......# ",
" #++++#.......# ",
" ##+++#.......# ",
"   ##+######### ",
"     ##         "
};
