/* XPM */
static const char *PAUSE_XPM[] = {
"16 16 3 1",
" 	c None",
".	c #000000",
"+	c #0064C8",
"                ",
"  .....  .....  ",
"  .+++.  .+++.  ",
"  .+++.  .+++.  ",
"  .+++.  .+++.  ",
"  .+++.  .+++.  ",
"  .+++.  .+++.  ",
"  .+++.  .+++.  ",
"  .+++.  .+++.  ",
"  .+++.  .+++.  ",
"  .+++.  .+++.  ",
"  .+++.  .+++.  ",
"  .+++.  .+++.  ",
"  .+++.  .+++.  ",
"  .....  .....  ",
"                "
};
