/* XPM */
static const char *PENCIL_GREEN_XPM[] = {
"16 16 9 1",
" 	c None",
".	c #000000",
"+	c #EC8CEA",
"@	c #D67AD6",
"#	c #54C254",
"$	c #AC52AC",
"%	c #00A500",
"&	c #006E00",
"*	c #FFFFFF",
"                ",
"           .    ",
"          .+.   ",
"         .+@@.  ",
"        .#.@@$. ",
"       .#%%.$.  ",
"      .#%%%&.   ",
"     .#%%%&.    ",
"    .#%%%&.     ",
"   .#%%%&.      ",
"  .#%%%&.       ",
" .*%%%&.        ",
" .**%&.         ",
" .%**.          ",
" ....           ",
"                "
};
