/* XPM */
static const char *PENCIL_BROWN_XPM[] = {
"16 16 13 1",
" 	c None",
".	c #000000",
"+	c #EC8CEA",
"@	c #D67AD6",
"#	c #BAC2CA",
"$	c #5C5C5C",
"%	c #AC52AC",
"&	c #A77C64",
"*	c #A6AEB4",
"=	c #7C3C19",
"-	c #767676",
";	c #532810",
">	c #FFFFFF",
"                ",
"           ..   ",
"          .+@.  ",
"         .+++@. ",
"        .#$+@%. ",
"       .&$*$%.  ",
"      .&==$-.   ",
"     .&===;.    ",
"    .&===;.     ",
"   .&===;.      ",
"  .&===;.       ",
" .>===;.        ",
" .>>=;.         ",
" .=>>.          ",
" ....           ",
"                "
};
