/* XPM */
static const char *PENCIL_GREEN_XPM[] = {
"18 18 13 1",
" 	c None",
".	c #000000",
"+	c #EC8CEA",
"@	c #D67AD6",
"#	c #BAC2CA",
"$	c #5C5C5C",
"%	c #AC52AC",
"&	c #54C254",
"*	c #A6AEB4",
"=	c #00A500",
"-	c #767676",
";	c #006E00",
">	c #FFFFFF",
"                  ",
"                  ",
"            ..    ",
"           .+@.   ",
"          .+++@.  ",
"         .#$+@%.  ",
"        .&$*$%.   ",
"       .&==$-.    ",
"      .&===;.     ",
"     .&===;.      ",
"    .&===;.       ",
"   .&===;.        ",
"  .>===;.         ",
"  .>>=;.          ",
"  .=>>.           ",
"  ....            ",
"                  ",
"                  "
};
