/* XPM */
static const char *PLAY_XPM[] = {
"18 18 3 1",
" 	c None",
".	c #000000",
"+	c #00C800",
"                  ",
"                  ",
"     ...          ",
"     .++.         ",
"     .+++.        ",
"     .++++.       ",
"     .+++++.      ",
"     .++++++.     ",
"     .+++++++.    ",
"     .+++++++.    ",
"     .++++++.     ",
"     .+++++.      ",
"     .++++.       ",
"     .+++.        ",
"     .++.         ",
"     ...          ",
"                  ",
"                  "
};
