/* XPM */
static const char *RIGHT_XPM[] = {
"18 18 3 1",
" 	c None",
".	c #000000",
"+	c #33DDFF",
"                  ",
"                  ",
"                  ",
"                  ",
"        ..        ",
"        .+.       ",
"        .++.      ",
"    .....+++.     ",
"    .++++++++.    ",
"    .++++++++.    ",
"    .....+++.     ",
"        .++.      ",
"        .+.       ",
"        ..        ",
"                  ",
"                  ",
"                  ",
"                  "
};
