/* XPM */
static const char *RIGHT_XPM[] = {
"16 16 3 1",
" 	c None",
".	c #000000",
"+	c #33DDFF",
"                ",
"                ",
"                ",
"       ..       ",
"       .+.      ",
"       .++.     ",
"   .....+++.    ",
"   .++++++++.   ",
"   .++++++++.   ",
"   .....+++.    ",
"       .++.     ",
"       .+.      ",
"       ..       ",
"                ",
"                ",
"                "
};
