/* XPM */
static const char *RULER_XPM[] = {
"16 16 4 1",
" 	c None",
".	c #808080",
"+	c #E0E0E0",
"@	c #404040",
"                ",
"                ",
"                ",
"                ",
"................",
"++++++++++++++++",
"++++++.+++++++.+",
"++++++.+++++++.+",
"++.+++.+++.+++.+",
"@@@@@@@@@@@@@@@@",
"                ",
"                ",
"                ",
"                ",
"                ",
"                "
};
