/* XPM */
static const char *RULER_XPM[] = {
"16 16 5 1",
" 	c None",
".	c #000000",
"+	c #A16C38",
"@	c #FFFFFF",
"#	c #E0B380",
"                ",
"                ",
"                ",
"                ",
"                ",
"                ",
".+.+.+.+.+.+.+..",
".@#@#@#@#@#@#@#.",
".##############.",
".##############.",
"................",
"                ",
"                ",
"                ",
"                ",
"                "
};
