/* XPM */
static const char *SAVE_AS_XPM[] = {
"16 16 5 1",
" 	c None",
".	c #181818",
"+	c #B1B1BA",
"@	c #555555",
"#	c #E4F4F4",
"                ",
" ..++++++++..   ",
" .@########@.   ",
" .@..++++++++.. ",
" .@.@########@. ",
" .@.@########@. ",
" .@.@########@. ",
" .@.@########@. ",
" .@.@+######+@. ",
" .@.@@@@@@@@@@. ",
" .@.@........@. ",
"  ..@.++++.@.@. ",
"   .@.+..+.@.@. ",
"    ..+..+.@.@. ",
"     .@@@@..... ",
"                "
};
