/* XPM */
static const char *SAVE_XPM[] = {
"18 18 5 1",
" 	c None",
".	c #000000",
"+	c #646464",
"@	c #FFFFFF",
"#	c #C8C8C8",
"                  ",
"                  ",
"  ..............  ",
"  .+@@@@@@@@@@+.  ",
"  .+@@@@@@@@@@+.  ",
"  .+@@@@@@@@@@+.  ",
"  .+@@@@@@@@@@+.  ",
"  .+@@@@@@@@@@+.  ",
"  .++@@@@@@@@++.  ",
"  .++++++++++++.  ",
"  .+..........+.  ",
"  .+.######.+.+.  ",
"  .+.#..###.+.+.  ",
"  .+.#..###.+.+.  ",
"   ..#..###.+.+.  ",
"    ............  ",
"                  ",
"                  "
};
