/* XPM */
static const char *SAVE_XPM[] = {
"16 16 5 1",
"  c None",
"# c #000000",
"+ c #646464",
"= c #C8C8C8",
". c #FFFFFF",
"                ",
" ############## ",
" #+..........+# ",
" #+..........+# ",
" #+..........+# ",
" #+..........+# ",
" #+..........+# ",
" #++........++# ",
" #++++++++++++# ",
" #+##########+# ",
" #+#======#+#+# ",
" #+#=##===#+#+# ",
" #+#=##===#+#+# ",
"  ##=##===#+#+# ",
"   ############ ",
"                "
};
