/* XPM */
static const char *SCROLL_DARK_XPM[] = {
"16 16 3 1",
" 	c None",
".	c #FFFF00",
"+	c #000000",
".               ",
".               ",
".         +     ",
".         ++    ",
".         +.+   ",
". +++++++++..+  ",
". .+.+........+ ",
". +.+..........+",
". .+.+.........+",
". +.+.........+ ",
". +++++++++..+  ",
".         +.+   ",
".         ++    ",
".         +     ",
".               ",
".               "
};
