/* XPM */
static const char *SCROLL_DARK_XPM[] = {
"18 18 3 1",
" 	c None",
".	c #FFFF00",
"+	c #000000",
"                  ",
" .                ",
" .                ",
" .         +      ",
" .         ++     ",
" .         +.+    ",
" . +++++++++..+   ",
" . .+.+........+  ",
" . +.+..........+ ",
" . .+.+.........+ ",
" . +.+.........+  ",
" . +++++++++..+   ",
" .         +.+    ",
" .         ++     ",
" .         +      ",
" .                ",
" .                ",
"                  "
};
