/* XPM */
static const char *SNIP_XPM[] = {
"18 18 5 1",
" 	c None",
".	c #000000",
"+	c #FFFFFF",
"@	c #BBBBBB",
"#	c #FF6000",
"                  ",
"       ...        ",
"       .+@.       ",
"       .+@.       ",
"       .+@.       ",
"       .+@.       ",
"       .+@. ....  ",
" .......+@..####. ",
" .++++++++###..#. ",
" .@@@@@@+@###..#. ",
"  ......##..####. ",
"       .##. ....  ",
"      .####.      ",
"      .#..#.      ",
"      .#..#.      ",
"      .####.      ",
"       ....       ",
"                  "
};
