/* XPM */
static const char *SPLIT_LIGHT_XPM[] = {
"16 16 5 1",
" 	c None",
".	c #7F007F",
"+	c #FF00FF",
"@	c #000000",
"#	c #D90000",
"     .++++.     ",
"      .++.      ",
"       ..       ",
"                ",
"@@@@@@  @@@@@@@@",
"@#####@  @#####@",
"@######@  @####@",
"@#####@  @#####@",
"@####@  @######@",
"@#####@  @#####@",
"@######@  @####@",
"@@@@@@@    @@@@@",
"                ",
"       ..       ",
"      .++.      ",
"     .++++.     "
};
