/* XPM */
static const char *SPLIT_DARK_XPM[] = {
"18 18 5 1",
" 	c None",
".	c #7F7F00",
"+	c #FFFF00",
"@	c #000000",
"#	c #D90000",
"                  ",
"      .++++.      ",
"       .++.       ",
"        ..        ",
"                  ",
" @@@@@@  @@@@@@@@ ",
" @#####@  @#####@ ",
" @######@  @####@ ",
" @#####@  @#####@ ",
" @####@  @######@ ",
" @#####@  @#####@ ",
" @######@  @####@ ",
" @@@@@@@    @@@@@ ",
"                  ",
"        ..        ",
"       .++.       ",
"      .++++.      ",
"                  "
};
