/* XPM */
static const char *STOP_XPM[] = {
"18 18 3 1",
" 	c None",
".	c #000000",
"+	c #C80000",
"                  ",
"                  ",
"                  ",
"   ............   ",
"   .++++++++++.   ",
"   .++++++++++.   ",
"   .++++++++++.   ",
"   .++++++++++.   ",
"   .++++++++++.   ",
"   .++++++++++.   ",
"   .++++++++++.   ",
"   .++++++++++.   ",
"   .++++++++++.   ",
"   .++++++++++.   ",
"   ............   ",
"                  ",
"                  ",
"                  "
};
