/* XPM */
static const char *UP_UP_XPM[] = {
"16 16 3 1",
" 	c None",
".	c #000000",
"+	c #33DDFF",
"                ",
"                ",
"                ",
"                ",
"   ..      ..   ",
"  .++.    .++.  ",
" .++++.  .++++. ",
".++++++..++++++.",
"...++......++...",
"  .++.    .++.  ",
"  .++.    .++.  ",
"  ....    ....  ",
"                ",
"                ",
"                ",
"                "
};
