/* XPM */
static const char *VERIFY_XPM[] = {
"18 18 7 1",
" 	c None",
".	c #808080",
"+	c #000000",
"@	c #FFFFFF",
"#	c #00D000",
"$	c #FFFF00",
"%	c #00B000",
"                  ",
"      ........... ",
"   +++.@@@@@@@##. ",
"  +$$$.@@@@@@##%. ",
" +$$$$.@#@@@##%%. ",
" +$$$+.@##@##%%@. ",
" +$$+ .@%###%%@@. ",
" +$$+ .@%%#%%@@@. ",
" +$$+ .@@%%%@@@@. ",
" +$$+ .@@@%@@@@@. ",
" +$$$+.@@@@@@@@@. ",
" +$$$$........... ",
"  +$$$$$$$$+$$$+  ",
"   +++++$$+++++   ",
"       +$+        ",
"       ++         ",
"                  ",
"                  "
};
