/* XPM */
static const char *ZOOM_IN_XPM[] = {
"16 16 6 1",
" 	c None",
".	c #000000",
"+	c #CBDDED",
"@	c #FFFFFF",
"#	c #0000FF",
"$	c #B8B8B8",
"        .....   ",
"       .++@@+.  ",
"      .++@@@@@. ",
"     .+++@#@@@+.",
"     .++++#++++.",
"     .++#####++.",
"     .++@@#@@@+.",
"     .++@@#@@@+.",
"     ..+@@@@@@. ",
"    .$$.+++++.  ",
"   .$$$......   ",
"  .$$$.         ",
" .$$$.          ",
" .$$.           ",
"  ..            ",
"                "
};
